<?xml version="1.0" encoding="UTF-8"?>
<svg id="Capa_1" data-name="Capa 1" xmlns="http://www.w3.org/2000/svg" version="1.1" viewBox="0 0 529.12 516.84">
  <defs>
    <style>
      .cls-1 {
        fill: #939393;
        stroke-width: 0px;
      }
    </style>
  </defs>
  <path class="cls-1" d="M226.66,163.99c0-9.21-.08-17.26.01-25.32.24-20.94,11.75-32.31,32.75-32.33,38.16-.03,76.32,0,114.48,0,2.43,0,4.85,0,7.21,0,2.35-21.66,9.12-24.39,34.71-22.58v85.95c-8.86-.87-18.16,2.35-26.54-3.3-8.92-6.01-7.02-15.69-7.34-24.86-2.45-.19-4.39-.47-6.33-.47-34.79-.03-69.59-.03-104.38,0-8.97,0-9.98,1.07-10.02,10.13-.02,3.99,0,7.98,0,12.85,4.37,0,8.12-.15,11.86.03,9.5.46,17.31,6.77,16.39,15.98-1.47,14.71,4.62,23.48,15.47,32.92,17.67,15.37,25.14,36.68,25.14,60.24,0,4.03.62,6.84,4.52,9.33,6.81,4.35,10.54,19.9,6.32,26.93-1.39,2.32-5.87,3.84-8.97,3.89-19.97.34-39.95.18-59.93.18-38.16,0-76.32,0-114.48,0-10.24,0-10.95-.96-11.26-11.1-.28-8.99.81-16.98,9.66-22.02,1.27-.73,1.57-3.89,1.62-5.95.63-29.81,12.55-53.68,36.83-71.3,1.79-1.3,3.1-4.16,3.37-6.44.53-4.43.1-8.96.17-13.45.19-12.45,6.74-19.05,19.14-19.29,2.87-.05,5.73,0,9.62,0ZM318.81,278.48c.07-28.19-9.31-50.91-33.02-66.46-2.07-1.35-5-1.93-7.54-1.94-22.88-.15-45.76-.11-68.65-.04-1.95,0-4.11.2-5.8,1.04-21.25,10.58-37.43,42.82-33.71,67.4h148.72ZM381.73,118.02h-8.78c-33.65,0-67.29,0-100.94,0-5.83,0-11.68-.15-17.49.19-8.25.48-15.17,5.95-15.77,13.89-.79,10.4-.19,20.9-.19,31.52h11.17c0-4.56-.03-8.77,0-12.97.11-15.08,6.29-21.32,21.23-21.33,34.54-.02,69.09,0,103.63-.02,2.36,0,4.73-.21,7.14-.32v-10.96ZM158.38,301.41h171.24c.82-9.6-.2-10.88-9.05-10.89-51.16-.03-102.32-.04-153.48,0-8.46,0-9.97,1.96-8.71,10.88ZM209.68,197.62h68.82c0-5.54.06-10.47-.02-15.39-.07-4.33-2.5-6.8-6.71-6.83-18.63-.11-37.28-.24-55.9.27-2.12.06-5.44,3.82-5.91,6.3-.94,4.95-.28,10.19-.28,15.64ZM404.71,95.72c-9.36-1.23-11.26.29-11.3,8.78-.06,14.82-.07,29.64,0,44.46.04,8.2,2.48,9.95,11.29,8.15v-61.39Z"/>
  <path class="cls-1" d="M307.2,364.62c0-3.58-.68-7.34.22-10.68.62-2.29,3.42-3.99,5.24-5.95,2.04,1.98,5.62,3.8,5.83,5.95.71,7.54.66,15.23,0,22.78-.18,2.02-3.6,5.21-5.53,5.21-1.92,0-4.97-3.07-5.49-5.28-.91-3.81-.25-8-.26-12.03Z"/>
  <path class="cls-1" d="M238.27,387.51c0-3.58-.67-7.34.23-10.68.61-2.24,3.37-5.3,5.29-5.39,1.85-.09,5.38,3.04,5.54,4.97.64,7.77.64,15.66,0,23.44-.16,1.96-3.64,5.1-5.52,5.05-1.9-.05-4.8-3.14-5.31-5.35-.88-3.83-.24-8-.24-12.03Z"/>
  <path class="cls-1" d="M249.69,342.61c0,3.58.75,7.39-.25,10.66-.72,2.37-3.77,4.03-5.78,6.01-1.8-1.96-4.97-3.8-5.15-5.89-.62-7.56-.63-15.23.03-22.79.17-2.02,3.5-5.23,5.4-5.24,1.89,0,4.94,3.03,5.46,5.22.9,3.81.25,7.99.25,12.02.02,0,.03,0,.05,0Z"/>
  <path class="cls-1" d="M284.22,342.09c0-3.81-.66-7.78.25-11.35.57-2.24,3.49-5.33,5.4-5.37,1.91-.04,5.41,3.13,5.58,5.11.64,7.77.63,15.67-.03,23.44-.17,1.95-3.75,5.08-5.64,4.99-1.93-.09-4.75-3.2-5.32-5.46-.9-3.58-.24-7.55-.23-11.36Z"/>
  <path class="cls-1" d="M272.72,365.03c0,3.8.74,7.82-.26,11.34-.67,2.34-3.84,3.98-5.88,5.93-1.79-1.98-4.93-3.84-5.11-5.97-.64-7.33-.7-14.79,0-22.11.22-2.24,3.61-4.18,5.55-6.25,1.91,2.11,4.79,3.94,5.5,6.39.95,3.3.24,7.09.24,10.67-.01,0-.02,0-.03,0Z"/>
  <path class="cls-1" d="M284.22,388.17c0-3.81-.66-7.78.24-11.36.56-2.24,3.43-5.33,5.35-5.39,1.91-.07,5.47,3.05,5.63,4.99.65,7.78.64,15.67-.02,23.45-.17,1.96-3.69,5.1-5.59,5.05-1.92-.06-4.8-3.14-5.37-5.38-.9-3.58-.24-7.55-.24-11.36Z"/>
  <path class="cls-1" d="M261.19,410.99c0-3.58-.72-7.37.25-10.67.7-2.42,3.62-4.19,5.55-6.26,1.93,2.06,5.28,3.98,5.51,6.22.72,7.09.78,14.35,0,21.42-.26,2.38-3.82,4.39-5.88,6.57-1.81-2.18-4.53-4.11-5.21-6.6-.9-3.34-.22-7.1-.22-10.68Z"/>
  <path class="cls-1" d="M192.33,341.88c0-3.58-.72-7.37.23-10.67.69-2.41,3.59-4.18,5.5-6.23,1.83,1.89,5.08,3.67,5.25,5.7.64,7.55.64,15.22.02,22.78-.17,2.08-3.33,3.91-5.12,5.86-1.96-2.01-4.99-3.72-5.63-6.09-.96-3.54-.25-7.54-.26-11.35Z"/>
  <path class="cls-1" d="M180.57,364.9c0,3.8.71,7.8-.25,11.34-.64,2.35-3.66,4.06-5.61,6.05-1.78-1.94-4.93-3.78-5.1-5.85-.61-7.56-.61-15.22.03-22.78.17-2.02,3.38-5.21,5.27-5.26,1.83-.05,4.82,2.98,5.37,5.14.9,3.58.24,7.54.24,11.35.02,0,.03,0,.05,0Z"/>
  <path class="cls-1" d="M192.33,387.91c0-3.58-.72-7.36.23-10.67.69-2.4,3.58-4.16,5.49-6.21,1.84,1.87,5.09,3.63,5.26,5.64.64,7.55.64,15.22.03,22.77-.17,2.08-3.33,3.92-5.11,5.87-1.96-2-5-3.7-5.64-6.06-.96-3.54-.25-7.54-.26-11.34Z"/>
  <path class="cls-1" d="M215.33,364.71c0-3.8-.68-7.79.26-11.34.57-2.15,3.5-4.66,5.7-5.02,1.43-.24,4.84,3,4.96,4.85.55,8,.54,16.09-.04,24.1-.13,1.79-3.7,4.94-5.12,4.65-2.18-.45-5.01-3.05-5.52-5.21-.9-3.81-.25-7.99-.24-12.02Z"/>
  <path class="cls-1" d="M226.64,411.34c0,3.58.71,7.36-.24,10.66-.69,2.42-3.57,4.21-5.47,6.28-1.88-2.08-5.17-4.03-5.38-6.27-.69-7.31-.63-14.76,0-22.08.18-2.07,3.33-3.88,5.11-5.82,1.99,1.94,5.06,3.58,5.7,5.9.97,3.53.25,7.53.25,11.33,0,0,.02,0,.03,0Z"/>
</svg>