<?xml version="1.0" encoding="UTF-8"?>
<svg id="Capa_1" data-name="Capa 1" xmlns="http://www.w3.org/2000/svg" version="1.1" viewBox="0 0 529.12 516.84">
  <defs>
    <style>
      .cls-1 {
        fill: #939393;
        stroke-width: 0px;
      }
    </style>
  </defs>
  <path class="cls-1" d="M444.38,333.59c11.03,1.21,11.11,1.3,11.12,12.73,0,3.71,0,7.41,0,11.12,0,11.39-.1,11.5-11.86,12.81,0,7.02-.06,14.13.02,21.24.06,5.15-2.22,7.89-7.52,7.83-24.81-.29-20,3.2-25.04-19.48-.69-3.12-1.3-6.25-2.03-9.75H134.35c-1.54,7.29-3.3,14.65-4.59,22.09-.87,5.01-3.33,7.24-8.47,7.19-23.81-.23-21.57,2.5-21.57-20.49,0-2.91,0-5.82,0-8.64-11.77-1.29-11.85-1.38-11.86-12.81,0-3.71,0-7.41,0-11.12,0-11.43.08-11.51,11.86-12.8,0-14.18-.01-28.45,0-42.73.02-16.99,6.37-24.75,23.71-28.35,0-2.53,0-5.2,0-7.87,0-30.13-.05-60.27.02-90.4.04-16.11,9.72-25.71,25.95-25.72,81.51-.04,163.02-.04,244.53,0,16.51,0,25.94,9.66,25.96,26.46.05,32.34.01,64.68.01,94.98,7.14,4.76,14.93,7.51,18.5,12.99,3.81,5.85,4.55,14.24,5.01,21.63.78,12.55.28,25.18.35,37.77,0,.44.38.88.59,1.32ZM408.02,262.58c0-32.69.02-64.76,0-96.82-.01-11.51-4-15.43-15.65-15.43-80.5-.01-161-.01-241.51,0-11.56,0-15.49,3.96-15.49,15.59-.02,29.88,0,59.76,0,89.64v6.97h11.81c0-7.23-.04-14.1,0-20.96.11-16.59,9.61-26.03,26.35-26.07,21.98-.05,43.96-.05,65.93,0,16.72.04,26.21,9.49,26.32,26.1.05,7.04,0,14.08,0,20.88h11.81c0-7.54-.07-14.66.01-21.78.17-15.26,9.83-25.1,24.98-25.18,22.96-.12,45.93-.13,68.9,0,14.74.09,24.47,9.95,24.7,24.71.11,7.34.02,14.69.02,22.34h11.81ZM431.73,333.8c0-14.46,0-28.24,0-42.02,0-13.54-3.45-16.96-17.09-16.96-95.26,0-190.52,0-285.78,0-2.22,0-4.48-.21-6.65.13-5.74.89-10.09,4.32-10.26,10.03-.49,16.18-.17,32.38-.17,48.81h319.96ZM100.08,357.26h343.14v-10.9H100.08v10.9ZM253.84,262.66c0-8.38.24-16-.07-23.59-.28-6.92-4.87-11.53-11.87-11.59-23.64-.19-47.29-.17-70.94,0-6.51.04-11.05,3.84-11.6,10.21-.71,8.21-.17,16.53-.17,24.98h94.65ZM384.27,262.65c0-8.38.24-16-.07-23.6-.28-6.92-4.87-11.53-11.88-11.58-23.64-.19-47.29-.17-70.94,0-6.51.04-11.05,3.84-11.6,10.21-.71,8.21-.17,16.53-.17,24.97h94.65ZM112.11,369.97v17.17c7.42-.02,8.14-1.41,9.3-17.17h-9.3ZM431.19,387.8v-17.81h-10.83c4.85,5.75-1.17,16.16,10.83,17.81Z"/>
</svg>