<?xml version="1.0" encoding="UTF-8"?>
<svg id="Capa_1" data-name="Capa 1" xmlns="http://www.w3.org/2000/svg" version="1.1" viewBox="0 0 529.12 516.84">
  <defs>
    <style>
      .cls-1 {
        fill: #939393;
        stroke-width: 0px;
      }
    </style>
  </defs>
  <path class="cls-1" d="M125.42,250.89c-4.47,1.59-7.79,3.29-11.28,3.82-2.25.34-4.76-1.05-7.16-1.66,1.42-2.19,2.36-5.62,4.33-6.39,18.97-7.43,38.11-14.43,57.21-21.54,22.31-8.31,44.6-16.69,66.97-24.83,3.98-1.45,5.71-3.25,5.59-7.8-.35-13.31-.31-26.64-.02-39.96.1-4.37-1.03-6.89-5.46-7.75-1.65-.32-3.57-.87-4.68-1.99-1.31-1.33-3.05-4.2-2.52-4.96,1.07-1.54,3.5-2.78,5.45-2.91,1.97-.13,4.05,1.19,6.05,1.94,24.93,9.27,49.85,18.55,74.79,27.82.97.36,2,.57,3.78,1.07,0-11.38-.03-22.29,0-33.19.03-7.89.91-8.74,8.98-8.77,10.74-.03,21.49.14,32.23-.06,5.54-.1,7.59,2.12,7.5,7.69-.25,15.47.12,30.94-.21,46.41-.1,4.81,1.2,7.18,5.93,8.79,12.99,4.42,25.77,9.44,38.62,14.25,1.6.6,3.56.99,4.59,2.16,1.08,1.23,2.16,3.81,1.57,4.82-.84,1.43-3.21,2.69-4.92,2.68-2.2,0-4.39-1.34-7.75-2.5,0,3.11,0,5.56,0,8.01,0,54.15,0,108.29,0,162.44,0,9.48-.42,9.91-9.72,9.91-86.81,0-173.61,0-260.42,0-9.02,0-9.46-.46-9.46-9.48-.01-39.97,0-79.93,0-119.9,0-2.35,0-4.69,0-8.12ZM269.82,378.92c0-14.9-.01-29.46,0-44.02.01-11.07,1.74-12.83,12.57-12.84,26.86-.01,53.72,0,80.58,0,11.19,0,13.06,1.88,13.07,13.07,0,14.55,0,29.1,0,43.8h19.72c.15-2,.36-3.47.36-4.95.02-54.79-.04-109.59.13-164.38.01-4.4-1.94-5.86-5.51-7.18-45.26-16.76-90.47-33.63-135.71-50.44-1.5-.56-3.13-.79-5.09-1.27,0,3.13,0,5.7,0,8.27.06,67.9.12,135.8.17,203.7q.01,18.36,19.71,16.23ZM240.47,208.23c-2.27.7-4.1,1.17-5.86,1.82-31.54,11.75-63.04,23.63-94.65,35.18-4.45,1.62-5.73,3.81-5.7,8.34.19,28.13.1,56.27.1,84.41,0,12.03-.15,24.06.16,36.08.05,1.83,2.08,5.03,3.42,5.15,6.11.56,12.31.25,19.08.25,0-3.1,0-5.42,0-7.73,0-19.76-.01-39.52,0-59.28,0-10.47,2.27-12.68,12.93-12.69,11.17-.01,22.34-.02,33.5,0,10.22.02,12.58,2.31,12.59,12.37.02,19.76,0,39.52,0,59.28,0,2.49,0,4.98,0,7.61h24.41v-170.78ZM206.83,308.92h-40.48v69.87h40.48v-69.87ZM366.61,378.97v-47.41h-38.68v47.41h38.68ZM279.15,378.87h38.93v-47.38h-38.93v47.38ZM327.46,133.01c0,11.76-.07,22.87.1,33.98.02,1.14,1.22,2.86,2.28,3.28,9.12,3.59,18.33,6.95,27.85,10.5v-47.75h-30.24Z"/>
  <path class="cls-1" d="M322.8,278.31c-12.01,0-24.02.08-36.03-.03-7.02-.06-9.76-2.75-9.83-9.71-.12-11.79-.12-23.59,0-35.39.07-6.97,2.77-9.72,9.81-9.75,24.24-.1,48.47-.09,72.71,0,7.05.03,9.77,2.72,9.86,9.74.15,11.79.15,23.59,0,35.39-.09,7.05-2.8,9.67-9.84,9.73-12.22.1-24.45.03-36.68.03ZM360.03,255.66h-73.78v13.26h73.78v-13.26ZM286.15,245.8h73.77v-13.03h-73.77v13.03Z"/>
</svg>