<?xml version="1.0" encoding="UTF-8"?>
<svg id="Capa_1" data-name="Capa 1" xmlns="http://www.w3.org/2000/svg" version="1.1" viewBox="0 0 529.12 516.84">
  <defs>
    <style>
      .cls-1 {
        fill: #939393;
        stroke-width: 0px;
      }
    </style>
  </defs>
  <path class="cls-1" d="M402.34,298.76c0,32.88.04,65.75-.03,98.63-.02,9.5-6.13,15.51-13.87,13.97-6.01-1.2-9.58-5.79-9.61-12.86-.07-20.47-.03-40.93-.03-61.4,0-43.11-.05-86.22.08-129.33.01-4.25-1.17-7.2-4.34-10.15-31.12-28.88-62.08-57.92-93.08-86.92-7.27-6.8-9.24-6.84-16.26-.2-31,29.32-61.94,58.71-93.07,87.9-3.51,3.29-4.77,6.59-4.76,11.32.15,61.4.1,122.79.1,184.19,0,1.96.07,3.92-.04,5.88-.39,6.79-5.24,11.73-11.52,11.81-5.97.07-11.02-4.52-11.85-10.9-.22-1.72-.12-3.48-.12-5.22,0-64.66.03-129.33-.07-193.99,0-5.85,1.81-10.42,6.09-14.45,36.45-34.33,72.79-68.79,109.2-103.15,9.19-8.67,18.91-8.61,28.3.16,36.44,34.02,72.81,68.13,109.29,102.1,4.4,4.1,5.63,8.96,5.62,14.66-.08,32.66-.04,65.32-.04,97.97Z"/>
  <path class="cls-1" d="M341.66,380.87c0,6.26.09,11.64-.02,17.02-.17,8.01-4.59,12.93-11.53,13.01-6.93.08-11.53-4.69-11.87-12.71-.22-5.41-.04-10.83-.04-16.77h-91.9c0,5.66.08,11.24-.02,16.81-.13,7.64-4.38,12.4-11.13,12.66-6.96.26-11.97-4.59-12.3-12.33-.24-5.61-.05-11.23-.05-16.69q-11.9-2.46-11.9-14.58c0-11.1-.06-22.21.02-33.31.06-7.75,2.66-10.31,10.08-11.87,2.34-.49,4.97-2.4,6.32-4.42,8.36-12.46,16.53-25.07,24.48-37.8,2.74-4.39,6.22-6.21,11.28-6.18,20.03.11,40.06.12,60.09,0,5.07-.03,8.55,1.8,11.29,6.18,7.84,12.54,16.07,24.85,23.97,37.35,1.98,3.14,3.97,5.14,8.1,5.29,5.65.2,8.68,4.02,8.75,9.49.19,14.8.21,29.61-.14,44.41-.04,1.52-2.81,3.71-4.69,4.26-2.54.74-5.46.18-8.79.18ZM327.48,321.98c-6.91-10.73-13.1-20.36-19.3-29.99-.94-1.46-1.62-3.32-2.94-4.25-1.61-1.13-3.76-2.04-5.7-2.08-10.22-.2-20.45-.14-30.67-.08-8.69.05-18.94-2.61-25.64,1.09-6.94,3.84-10.49,13.86-15.41,21.24-2.91,4.36-5.61,8.85-8.89,14.06h108.55ZM329.66,330.37c-6.41,0-11.69,5.22-11.67,11.52.02,6.3,5.32,11.5,11.72,11.48,6.57-.02,11.51-4.96,11.5-11.53-.01-6.55-4.97-11.48-11.54-11.47ZM226.52,341.6c-.14-6.52-5.21-11.37-11.77-11.23-6.53.13-11.36,5.19-11.22,11.76.13,6.53,5.19,11.37,11.76,11.23,6.52-.13,11.38-5.22,11.24-11.77Z"/>
  <path class="cls-1" d="M273.09,213.22c-26.57,0-53.13,0-79.7,0-1.96,0-4.33.56-5.77-.33-1.94-1.2-4.35-3.53-4.38-5.41-.03-1.91,2.25-4.36,4.15-5.63,1.39-.93,3.8-.39,5.75-.39,53.35-.01,106.7-.01,160.05,0,1.95,0,4.38-.52,5.75.42,1.88,1.29,4.13,3.77,4.08,5.68-.06,1.88-2.5,4.17-4.46,5.35-1.46.88-3.82.31-5.77.31-26.57.01-53.13,0-79.7,0Z"/>
  <path class="cls-1" d="M272.47,242.11c-26.34,0-52.69,0-79.03,0-1.96,0-4.22.48-5.79-.32-1.87-.96-4.37-3.06-4.39-4.69-.03-2.05,1.73-4.83,3.55-5.99,1.78-1.13,4.61-.77,6.97-.78,52.9-.03,105.81-.03,158.71-.02,1.74,0,3.93-.6,5.13.22,2.21,1.53,5.28,3.9,5.29,5.94.01,1.85-3.34,4.08-5.62,5.47-1.28.78-3.4.18-5.14.18-26.56,0-53.12,0-79.68,0Z"/>
  <path class="cls-1" d="M271.81,185.83c-18.72,0-37.43-.04-56.15.03-4.32.02-8.37-.64-8.42-5.81-.04-5.09,3.87-6.05,8.25-6.05,38.09.05,76.17.05,114.26,0,4.33,0,8.36.83,8.44,5.89.08,5.13-3.91,5.98-8.27,5.96-19.37-.07-38.74-.03-58.11-.03Z"/>
</svg>