<?xml version="1.0" encoding="UTF-8"?>
<svg id="Capa_1" data-name="Capa 1" xmlns="http://www.w3.org/2000/svg" version="1.1" viewBox="0 0 639.65 551.93">
  <defs>
    <style>
      .cls-1 {
        fill: #0d4171;
        stroke-width: 0px;
      }
    </style>
  </defs>
  <path class="cls-1" d="M481.48,198.6c-15.05-75.99-85.15-131.09-166.78-131.09h-.26c-35.96.6-71.19,15.09-99.25,40.74-46.11,42.23-63.72,92.16-52.41,148.41,5.97,29.7,19.08,58.94,41.24,92,29.81,44.53,65.85,81.65,106.46,122.12,2.42,2.42,6.23,5.62,11.13,5.62h.11c5.16-.07,9.16-3.59,12.05-6.63,5.6-5.82,11.21-11.61,16.81-17.41,15.86-16.35,32.26-33.27,47.65-50.63,34.65-39.17,57.5-74.29,71.89-110.51,13.29-33.45,17.03-63.74,11.35-92.62ZM443.06,282.78c-6.34,14.36-14.03,28.97-22.89,43.42-19.37,31.53-67.94,88.44-98.66,115.87-42.81-43.38-86.69-88.46-115.11-145.17-11.35-22.72-17.51-44.51-18.79-66.62-3.7-60.59,45.92-113.9,93.97-128.55,13.66-4.17,27.39-6.23,40.87-6.23,25.78,0,50.72,7.54,72.7,22.32,33.29,22.36,56.88,59.71,60.13,95.18,2.12,23.04-1.98,46.51-12.23,69.77Z"/>
  <path class="cls-1" d="M321.62,162.56h-.04c-19.67.02-38.09,7.64-51.89,21.5-13.84,13.88-21.46,32.39-21.42,52.13.07,40.21,32.85,73.03,73.06,73.14h.18c19.67,0,38.16-7.62,52-21.44,13.88-13.81,21.5-32.21,21.53-51.82.04-19.68-7.58-38.18-21.46-52.02-13.84-13.86-32.3-21.48-51.97-21.48ZM366.89,235.59c.07,12.2-4.61,23.66-13.15,32.26-8.53,8.57-19.85,13.31-31.94,13.33h-.11c-12.09,0-23.44-4.69-31.97-13.22-8.57-8.55-13.29-19.94-13.29-32.08,0-24.74,20.07-45.01,44.72-45.17h.33c12.16,0,23.55,4.65,32.08,13.11,8.57,8.44,13.29,19.72,13.33,31.77Z"/>
</svg>