<?xml version="1.0" standalone="no"?>
<!DOCTYPE svg PUBLIC "-//W3C//DTD SVG 20010904//EN"
 "http://www.w3.org/TR/2001/REC-SVG-20010904/DTD/svg10.dtd">
<svg version="1.0" xmlns="http://www.w3.org/2000/svg"
 width="709.000000pt" height="709.000000pt" viewBox="0 0 709.000000 709.000000"
 preserveAspectRatio="xMidYMid meet">

<g transform="translate(0.000000,709.000000) scale(0.100000,-0.100000)"
fill="#000000" stroke="none">
<path d="M3463 6301 c-23 -11 -67 -39 -98 -62 l-57 -43 -73 38 c-137 71 -202
59 -308 -54 -72 -77 -54 -73 -171 -36 -63 21 -129 20 -172 0 -37 -18 -88 -76
-119 -136 -11 -21 -25 -40 -31 -42 -6 -2 -43 0 -81 6 -149 23 -220 -17 -279
-162 l-30 -75 -83 -7 c-172 -14 -222 -57 -255 -214 -8 -36 -18 -69 -22 -73 -5
-4 -38 -13 -73 -20 -153 -30 -199 -85 -210 -255 l-6 -79 -73 -31 c-144 -61
-178 -110 -168 -241 3 -44 7 -89 9 -99 1 -13 -10 -27 -33 -42 -81 -53 -122
-87 -141 -117 -25 -43 -25 -130 1 -204 11 -32 20 -64 20 -73 0 -9 -26 -40 -57
-70 l-57 -54 -228 -32 c-125 -18 -238 -36 -250 -40 -46 -14 -108 -68 -129
-112 -20 -41 -21 -54 -16 -166 4 -66 11 -137 16 -156 10 -34 27 -155 56 -380
15 -114 38 -277 55 -380 6 -36 21 -148 35 -250 36 -266 45 -320 62 -368 42
-121 147 -163 328 -132 33 6 116 18 185 26 69 8 141 17 161 20 28 5 46 0 78
-20 23 -15 66 -36 96 -47 l55 -20 0 -70 c0 -73 24 -155 57 -191 23 -26 71 -46
161 -68 40 -9 75 -20 77 -22 3 -3 10 -31 16 -64 18 -92 54 -161 101 -190 32
-20 58 -27 135 -32 l96 -7 30 -70 c62 -148 99 -171 261 -162 l111 6 45 -71
c51 -80 87 -111 146 -127 36 -10 54 -7 128 14 47 14 92 25 99 25 6 0 34 -25
60 -55 48 -55 128 -105 167 -105 22 0 142 39 150 49 11 14 60 41 74 41 8 0 41
-22 73 -48 127 -106 211 -103 341 9 18 16 39 29 47 29 7 0 44 -16 82 -35 135
-68 192 -57 306 61 l64 67 62 -22 c86 -30 141 -36 187 -21 51 16 78 41 130
122 l44 66 99 -5 c54 -3 110 -3 125 1 58 14 111 84 151 197 l16 47 97 4 c160
7 202 43 240 204 l19 78 76 17 c90 19 129 41 170 92 29 35 31 45 36 139 l6
102 82 36 c84 36 135 75 156 120 13 27 32 33 162 49 225 26 433 119 566 250
127 127 179 252 179 430 -1 66 -6 121 -15 146 -8 22 -15 47 -15 56 0 9 -16 49
-36 89 -47 94 -154 202 -247 249 -37 19 -67 38 -67 41 0 4 18 21 41 39 50 41
72 90 94 212 41 225 45 257 46 306 1 112 -64 191 -178 217 -65 14 -207 33
-298 39 l-40 2 3 61 c5 92 -35 152 -144 214 -29 17 -56 35 -59 40 -3 4 0 41 5
82 6 40 8 96 4 123 -5 42 -13 56 -50 91 -27 26 -72 53 -117 70 l-72 29 -6 95
c-4 79 -10 102 -31 136 -30 47 -111 89 -196 100 -60 8 -64 13 -82 99 -7 33
-23 82 -37 108 -33 67 -97 97 -204 97 -49 0 -80 4 -87 13 -5 6 -21 40 -34 74
-58 144 -124 177 -308 150 l-55 -8 -49 75 c-66 100 -103 126 -184 126 -36 0
-89 -9 -127 -21 l-65 -22 -68 70 c-107 110 -160 117 -308 43 l-83 -42 -31 29
c-53 49 -137 95 -183 100 -28 2 -56 -3 -84 -16z m329 -913 c19 -35 16 -228 -5
-320 -15 -64 -24 -82 -52 -107 -38 -33 -90 -51 -151 -51 -51 0 -155 20 -171
33 -27 20 -10 138 21 150 6 3 35 0 64 -6 104 -22 132 26 114 196 -6 50 -8 96
-5 103 6 16 31 21 110 23 55 1 64 -2 75 -21z m256 -2 c11 -11 11 -51 -3 -242
-11 -143 -22 -234 -29 -242 -13 -13 -142 -7 -166 8 -15 10 -14 437 1 477 10
26 10 26 97 19 51 -4 92 -12 100 -20z m-793 -7 c94 -48 141 -136 133 -247 -10
-137 -111 -235 -243 -236 -100 -1 -176 52 -223 152 -47 103 -12 232 83 304 55
42 65 45 150 47 44 1 71 -5 100 -20z m1065 1 c68 -7 132 -16 142 -21 15 -8 18
-23 18 -77 0 -80 -12 -100 -60 -104 l-35 -3 -6 -154 c-5 -114 -10 -156 -20
-163 -13 -8 -134 -3 -171 8 -9 3 -18 12 -20 21 -3 16 7 228 14 288 3 27 0 30
-36 36 -21 3 -42 12 -47 20 -6 8 -7 43 -4 79 7 74 23 93 70 85 16 -2 86 -9
155 -15z m-1455 -105 l0 -80 -32 -10 c-39 -11 -40 -17 -17 -145 8 -50 14 -109
12 -133 l-3 -42 -60 -17 c-68 -19 -121 -22 -130 -9 -3 5 -10 56 -15 113 -5 57
-13 123 -16 147 l-7 43 -37 -6 c-49 -8 -66 12 -73 87 -4 43 -2 61 9 72 9 8 18
15 22 15 4 0 68 11 142 25 74 13 151 23 170 22 l35 -2 0 -80z m1930 31 c100
-47 149 -133 149 -258 0 -69 -4 -86 -35 -144 -94 -184 -293 -178 -400 11 -17
31 -23 60 -27 132 -4 86 -2 96 23 145 65 124 177 168 290 114z m-2336 -125
c17 -137 34 -359 28 -374 -6 -17 -129 -52 -152 -44 -8 4 -30 29 -47 57 -17 27
-34 50 -39 50 -4 0 -6 -30 -6 -67 l2 -68 -38 -12 c-21 -7 -56 -16 -76 -19 -35
-6 -39 -4 -49 22 -6 16 -16 58 -21 94 -21 134 -41 247 -52 293 -14 62 -7 71
81 92 64 16 110 14 110 -4 0 -4 18 -32 41 -62 l41 -54 -7 81 c-8 92 -12 87 85
109 79 17 85 11 99 -94z m2808 28 c95 -44 101 -62 48 -144 -37 -58 -48 -63
-79 -40 -11 8 -28 15 -38 15 -30 0 -21 -37 17 -66 60 -46 78 -85 73 -164 -4
-79 -19 -102 -87 -132 -33 -15 -54 -18 -88 -13 -52 8 -134 41 -145 58 -9 13 0
99 13 135 8 22 13 23 63 17 84 -11 89 25 10 84 -54 41 -74 76 -74 129 0 50 23
96 63 126 52 40 130 38 224 -5z m-3408 -103 c7 -8 54 -100 107 -206 61 -123
93 -199 89 -210 -6 -19 -98 -60 -135 -60 -10 0 -23 8 -28 17 -8 14 -16 15 -43
7 -27 -8 -35 -16 -37 -38 -3 -22 -13 -32 -55 -52 -60 -28 -102 -31 -111 -8 -3
9 -6 120 -6 249 0 198 2 234 15 245 16 13 160 68 181 69 6 1 17 -5 23 -13z
m3213 -859 c108 -34 277 -133 278 -163 0 -6 -14 -35 -30 -65 -106 -190 -103
-468 7 -641 55 -89 168 -174 286 -217 48 -18 37 -55 -37 -125 -72 -69 -92
-117 -83 -198 6 -44 3 -51 -37 -105 -99 -134 -243 -237 -411 -294 -62 -21 -88
-24 -230 -24 -140 0 -168 3 -222 23 -78 27 -137 55 -141 65 -2 4 -8 7 -14 7
-13 0 -84 50 -130 93 -43 38 -47 58 -18 85 11 10 26 44 32 75 10 48 9 64 -5
110 -31 100 -105 158 -227 181 -19 3 -41 10 -48 15 -20 12 -42 135 -42 233 l0
86 38 12 c20 6 51 18 69 26 17 8 34 14 38 14 12 0 95 63 95 72 0 5 9 21 19 36
46 64 29 193 -40 306 -19 31 -27 55 -23 68 3 11 34 49 67 85 131 139 266 218
442 259 92 21 270 12 367 -19z m1387 8 c91 -18 118 -35 142 -89 15 -36 17 -52
9 -100 -5 -32 -12 -65 -14 -74 -3 -10 -10 -46 -16 -82 -34 -218 -44 -240 -117
-275 -31 -15 -45 -16 -115 -5 -91 14 -151 9 -179 -16 -40 -36 -22 -48 141 -94
175 -48 230 -72 300 -129 122 -98 181 -211 195 -371 11 -127 -11 -219 -79
-338 -39 -67 -173 -174 -272 -218 -33 -14 -66 -29 -74 -33 -61 -33 -295 -72
-430 -73 -219 -2 -259 27 -275 197 -4 44 -13 116 -21 160 -26 148 -16 198 46
244 25 18 56 26 141 37 120 14 175 35 192 71 26 58 -30 91 -236 138 -64 15
-119 31 -122 35 -3 4 -16 11 -31 14 -14 4 -31 11 -37 17 -7 5 -33 25 -58 44
-95 70 -148 186 -156 340 -13 242 102 427 329 534 76 35 190 68 280 81 87 12
367 3 457 -15z m-4224 -114 c39 -10 92 -28 118 -40 139 -60 287 -190 366 -320
l32 -54 -25 -81 c-86 -272 -89 -511 -9 -808 l26 -96 -26 -44 c-41 -69 -140
-181 -210 -236 -162 -127 -329 -180 -531 -169 -106 5 -266 47 -266 69 0 6 7
20 16 29 19 21 21 126 4 189 -5 19 -18 95 -30 169 -23 154 -48 206 -121 256
-41 28 -52 30 -148 33 -62 3 -121 -1 -148 -8 -24 -7 -46 -10 -49 -8 -2 3 -12
52 -20 109 -13 88 -14 119 -3 199 52 402 306 714 661 809 99 27 267 28 363 2z
m1540 4 c73 -17 163 -56 220 -95 45 -31 175 -158 175 -171 0 -4 13 -27 28 -51
37 -56 72 -140 72 -173 0 -14 -10 -44 -22 -65 -25 -44 -56 -61 -218 -125 -52
-20 -116 -45 -142 -56 -82 -34 -142 -20 -189 42 -59 77 -93 94 -140 71 -93
-47 -143 -243 -104 -410 10 -42 21 -79 24 -82 3 -3 13 -18 21 -35 19 -37 87
-84 121 -85 27 0 48 18 114 95 33 40 34 40 103 40 38 0 75 -5 83 -11 8 -6 37
-17 64 -23 28 -7 59 -17 70 -21 11 -5 54 -19 95 -31 88 -27 95 -31 126 -81 25
-39 31 -86 15 -116 -5 -9 -21 -41 -35 -70 -60 -120 -191 -266 -286 -317 -127
-68 -225 -94 -360 -94 -291 -1 -542 155 -668 414 -50 102 -69 150 -81 200 -6
22 -15 58 -21 80 -6 22 -13 108 -16 190 -7 160 4 288 32 383 101 344 301 539
619 606 49 10 245 5 300 -9z m-2789 -136 c36 -22 64 -73 64 -117 0 -16 5 -54
10 -83 11 -57 32 -202 55 -379 25 -196 75 -523 80 -528 3 -3 70 -1 149 6 152
12 193 7 233 -27 13 -11 27 -31 33 -45 17 -46 72 -400 66 -429 -8 -41 -44 -87
-80 -102 -33 -14 -75 -20 -446 -71 -58 -8 -159 -22 -225 -31 -169 -24 -227
-23 -262 3 -43 32 -60 71 -72 164 -6 47 -21 148 -32 225 -30 211 -45 315 -68
480 -12 83 -26 179 -31 215 -5 36 -17 117 -26 180 -9 63 -23 158 -31 210 -23
140 -22 203 3 237 41 55 74 64 434 113 67 9 105 4 146 -21z m3869 -2117 c15
-10 175 -251 175 -263 0 -18 -54 -31 -108 -24 -48 6 -54 5 -59 -13 -3 -14 -19
-24 -51 -32 -67 -17 -71 -9 -80 156 -5 76 -6 144 -4 151 6 19 108 39 127 25z
m-2373 -27 c36 -7 37 -8 44 -61 3 -30 10 -54 13 -54 4 0 18 23 31 50 14 29 30
50 39 50 22 -1 91 -17 98 -23 8 -9 -28 -321 -39 -334 -13 -16 -22 -16 -70 -2
-37 10 -38 11 -38 57 l-1 47 -15 -27 c-22 -42 -64 -36 -82 12 -10 25 -10 25
-19 -10 -10 -34 -11 -35 -59 -32 -26 1 -53 7 -58 12 -6 6 -2 41 12 97 52 219
60 238 91 229 9 -3 33 -8 53 -11z m2128 -31 c54 -22 80 -60 80 -118 0 -41 -4
-48 -40 -77 -37 -30 -39 -34 -33 -74 6 -48 4 -50 -54 -60 -41 -6 -43 -6 -57
27 -15 35 -52 184 -62 255 -6 38 -4 44 17 52 37 15 105 13 149 -5z m-281 -113
c12 -49 21 -95 21 -104 0 -18 21 -27 47 -21 38 10 80 -79 49 -105 -8 -6 -52
-15 -99 -18 -98 -7 -90 -16 -112 120 -8 45 -19 106 -24 136 -13 68 -4 81 54
81 l43 0 21 -89z m-1394 71 c38 -7 40 -9 46 -52 26 -176 37 -296 30 -303 -15
-15 -101 4 -112 24 -10 20 -59 27 -59 9 0 -11 -62 -13 -97 -4 -13 4 -23 13
-23 20 0 13 34 103 60 159 5 11 19 47 31 80 29 80 35 83 124 67z m333 -24 c15
-13 15 -31 1 -80 -7 -27 -15 -38 -29 -38 -18 0 -20 -7 -20 -84 0 -46 -3 -98
-6 -115 l-7 -32 -61 3 -61 3 0 114 c0 109 -1 114 -22 122 -13 5 -23 14 -24 21
-3 37 4 94 12 98 15 10 203 -2 217 -12z m849 -53 c13 -33 28 -69 33 -80 27
-60 60 -146 60 -159 0 -33 -102 -52 -114 -21 -8 23 -57 19 -63 -5 -4 -15 -15
-20 -42 -22 -42 -1 -73 1 -78 6 -6 5 16 211 29 276 6 30 15 58 22 63 6 4 38 6
70 5 l60 -3 23 -60z m-311 30 c59 -45 54 -88 -12 -101 -22 -4 -40 -2 -50 7
-14 11 -18 10 -30 -6 -16 -22 -18 -88 -4 -116 6 -10 20 -19 31 -19 26 0 37 30
16 42 -21 11 -22 44 -1 52 9 3 35 6 59 6 41 0 44 -2 55 -34 19 -57 -10 -136
-57 -154 -103 -41 -186 2 -217 111 -19 64 -11 114 26 175 40 65 125 82 184 37z
m-320 7 c6 -4 16 -29 22 -57 5 -27 18 -75 27 -105 31 -99 41 -170 26 -180 -21
-12 -94 -2 -104 15 -11 20 -67 20 -67 0 0 -11 -13 -15 -54 -15 -53 0 -85 17
-72 39 8 12 52 166 61 211 3 19 13 50 21 68 14 31 17 32 72 32 31 0 62 -4 68
-8z"/>
<path d="M3123 5210 c-70 -28 -49 -150 27 -150 46 0 70 26 70 76 0 68 -38 98
-97 74z"/>
<path d="M4670 5100 c-14 -14 -20 -33 -20 -65 0 -54 25 -85 69 -85 40 0 56 24
56 85 0 29 -6 59 -14 68 -19 23 -67 21 -91 -3z"/>
<path d="M1792 4827 c2 -15 7 -28 13 -28 16 -1 16 16 0 36 -15 19 -15 19 -13
-8z"/>
<path d="M4792 3547 c-46 -14 -116 -95 -133 -154 -8 -26 -14 -80 -13 -119 0
-89 30 -154 93 -201 36 -28 51 -33 98 -33 72 0 123 29 167 94 99 148 53 362
-89 416 -32 12 -80 11 -123 -3z"/>
<path d="M1990 3429 c-64 -26 -123 -109 -141 -198 -25 -128 28 -256 124 -296
132 -55 273 58 285 231 8 114 -47 228 -124 260 -38 16 -108 17 -144 3z"/>
<path d="M4570 1736 c0 -8 5 -18 10 -21 6 -3 10 3 10 14 0 12 -4 21 -10 21 -5
0 -10 -6 -10 -14z"/>
</g>
</svg>
