<?xml version="1.0" encoding="UTF-8"?>
<svg id="Capa_1" data-name="Capa 1" xmlns="http://www.w3.org/2000/svg" version="1.1" viewBox="0 0 639.65 551.93">
  <defs>
    <style>
      .cls-1 {
        fill: #939393;
        stroke-width: 0px;
      }
    </style>
  </defs>
  <path class="cls-1" d="M106.57,251.02c-6.58,2.34-11.46,4.84-16.61,5.62-3.32.5-7.01-1.54-10.54-2.44,2.09-3.23,3.47-8.27,6.38-9.41,27.93-10.95,56.11-21.24,84.23-31.71,32.85-12.23,65.67-24.57,98.61-36.56,5.86-2.13,8.41-4.78,8.23-11.48-.52-19.6-.46-39.23-.03-58.83.14-6.43-1.52-10.15-8.04-11.42-2.43-.47-5.25-1.27-6.88-2.92-1.93-1.95-4.49-6.19-3.71-7.3,1.58-2.27,5.15-4.09,8.02-4.28,2.9-.19,5.96,1.75,8.91,2.85,36.7,13.65,73.4,27.32,110.11,40.96,1.43.53,2.94.84,5.56,1.58,0-16.76-.04-32.81.01-48.87.04-11.61,1.34-12.87,13.23-12.91,15.82-.05,31.64.2,47.45-.09,8.15-.15,11.18,3.12,11.04,11.32-.37,22.77.17,45.56-.3,68.33-.15,7.08,1.76,10.57,8.74,12.94,19.12,6.51,37.94,13.9,56.86,20.99,2.36.88,5.24,1.46,6.75,3.17,1.59,1.81,3.18,5.61,2.31,7.09-1.23,2.1-4.73,3.95-7.25,3.95-3.24-.01-6.47-1.97-11.41-3.68,0,4.58,0,8.19,0,11.79,0,79.72,0,159.45,0,239.17,0,13.95-.61,14.59-14.31,14.59-127.81.01-255.62.01-383.43,0-13.27,0-13.93-.67-13.93-13.96-.02-58.84,0-117.69,0-176.53,0-3.45,0-6.91,0-11.95ZM319.17,439.52c0-21.94-.02-43.37,0-64.81.02-16.29,2.56-18.89,18.51-18.9,39.55-.02,79.09-.01,118.64,0,16.48,0,19.23,2.77,19.24,19.25,0,21.42,0,42.84,0,64.49h29.03c.22-2.94.53-5.12.53-7.29.03-80.68-.06-161.35.19-242.03.02-6.48-2.86-8.62-8.11-10.56-66.63-24.68-133.21-49.52-199.81-74.27-2.21-.82-4.6-1.16-7.49-1.87,0,4.61,0,8.4,0,12.18.09,99.97.18,199.94.25,299.92q.02,27.03,29.02,23.9ZM275.96,188.21c-3.34,1.03-6.04,1.72-8.63,2.68-46.44,17.3-92.81,34.79-139.36,51.8-6.55,2.39-8.44,5.61-8.39,12.28.28,41.42.14,82.85.14,124.27,0,17.71-.21,35.42.24,53.12.07,2.69,3.06,7.41,5.03,7.59,9,.82,18.12.36,28.09.36,0-4.56,0-7.97,0-11.39,0-29.09-.02-58.18,0-87.28.01-15.42,3.35-18.67,19.04-18.69,16.44-.02,32.89-.02,49.33,0,15.05.02,18.52,3.41,18.54,18.21.03,29.09.01,58.18.01,87.28,0,3.67,0,7.34,0,11.2h35.95v-251.45ZM226.42,336.46h-59.6v102.87h59.6v-102.87ZM461.68,439.6v-69.8h-56.95v69.8h56.95ZM332.91,439.45h57.31v-69.77h-57.31v69.77ZM404.04,77.46c0,17.31-.1,33.67.15,50.03.03,1.67,1.8,4.21,3.36,4.82,13.43,5.29,26.99,10.23,41.01,15.46v-70.31h-44.52Z"/>
  <path class="cls-1" d="M397.18,291.39c-17.68,0-35.37.11-53.05-.04-10.33-.09-14.37-4.05-14.47-14.3-.17-17.37-.17-34.74,0-52.1.1-10.27,4.08-14.31,14.45-14.36,35.68-.14,71.37-.14,107.06,0,10.39.04,14.38,4,14.52,14.33.22,17.36.22,34.74,0,52.1-.14,10.39-4.12,14.23-14.49,14.32-18,.15-36,.04-54,.04ZM451.99,258.04h-108.63v19.53h108.63v-19.53ZM343.21,243.53h108.61v-19.18h-108.61v19.18Z"/>
</svg>