<?xml version="1.0" encoding="UTF-8"?>
<svg id="Capa_1" data-name="Capa 1" xmlns="http://www.w3.org/2000/svg" version="1.1" viewBox="0 0 544.91 544.91">
  <defs>
    <style>
      .cls-1 {
        fill: #0d4171;
      }

      .cls-1, .cls-2 {
        stroke-width: 0px;
      }

      .cls-2 {
        fill: #fff;
      }
    </style>
  </defs>
  <circle class="cls-1" cx="273.04" cy="261.29" r="138.08"/>
  <path class="cls-2" d="M304.38,319.47c-12.24-.51-23.38-5.05-33.94-10.61-23.71-12.47-41.08-31.6-53.61-54.92-8.84-16.46-6.45-32.3,5.03-43.87,3.74-3.76,12.27-5.84,16.86-3.62,1.63.79,3.07,2.68,3.84,4.41,3.33,7.55,6.54,15.16,9.42,22.88.66,1.77.29,4.27-.45,6.1-.86,2.13-2.59,3.91-4.02,5.79q-5.75,7.52-.27,15.47c9.32,13.59,21.63,23.41,36.81,29.81,3.36,1.41,5.73.95,7.91-1.92,2.65-3.49,5.2-7.13,8.35-10.12,1.47-1.39,4.71-2.54,6.34-1.87,8.38,3.49,16.55,7.52,24.66,11.62,1.21.61,2.43,2.56,2.45,3.91.14,7.49-1.45,14.4-7.88,19.3-6.35,4.84-13.3,7.9-21.5,7.65Z"/>
</svg>