<?xml version="1.0" encoding="UTF-8"?>
<svg id="Capa_1" data-name="Capa 1" xmlns="http://www.w3.org/2000/svg" version="1.1" viewBox="0 0 544.91 544.91">
  <defs>
    <style>
      .cls-1 {
        fill: #0d4171;
      }

      .cls-1, .cls-2 {
        stroke-width: 0px;
      }

      .cls-2 {
        fill: #fff;
      }
    </style>
  </defs>
  <circle class="cls-1" cx="256.22" cy="267.28" r="135.6"/>
  <g>
    <path class="cls-2" d="M188.2,332.28c2.22-8.14,4.03-16.02,6.56-23.66,2.19-6.61,1.92-12.26-.93-19-16.44-38.88,8.03-82.87,49.76-90.43,38.61-6.99,74.84,20.96,77.94,60.13,3.1,39.29-28.28,72.71-67.6,71.93-9.92-.2-19.32-2.59-28.29-6.88-1.35-.65-3.25-.84-4.7-.48-10.11,2.52-20.18,5.24-30.26,7.88-.69.18-1.39.29-2.49.51ZM204.2,316.53c6.58-1.72,12.49-3.38,18.46-4.73,1.43-.32,3.33-.07,4.61.65,11.27,6.36,23.31,8.93,36.07,6.92,29.33-4.62,49.05-29.74,46.96-59.46-2.24-31.72-32.91-55.5-64.22-49.79-39.12,7.14-58.29,49.94-37.69,84.03.7,1.17.95,2.99.63,4.33-1.39,5.85-3.07,11.64-4.8,18.07Z"/>
    <path class="cls-2" d="M272.68,296.68c-6.77-.28-12.92-2.79-18.76-5.86-13.1-6.89-22.7-17.46-29.63-30.35-4.89-9.1-3.56-17.85,2.78-24.25,2.06-2.08,6.78-3.23,9.32-2,.9.43,1.7,1.48,2.12,2.44,1.84,4.17,3.62,8.38,5.21,12.65.36.98.16,2.36-.25,3.37-.47,1.17-1.43,2.16-2.22,3.2q-3.18,4.16-.15,8.55c5.15,7.51,11.96,12.94,20.34,16.47,1.86.78,3.16.52,4.37-1.06,1.46-1.93,2.88-3.94,4.62-5.59.81-.77,2.6-1.41,3.5-1.03,4.63,1.93,9.14,4.16,13.63,6.42.67.34,1.34,1.41,1.36,2.16.08,4.14-.8,7.96-4.36,10.67-3.51,2.67-7.35,4.37-11.88,4.23Z"/>
  </g>
</svg>